# xmcd
#
# Track frame offsets:
#	150
#	18140
#	34575
#	50020
#	65307
#	80397
#	95607
#	113310
#	129410
#	143710
#	160995
#	180730
#	194868
#	216490
#	236215
#
# Disc length: 3414
#
# Revision: 1
# Processed by: cddbd v1.5.1PL2 Copyright (c) Steve Scherf et al.
# Submitted via: kTunes Lite (development) 1.0patch42.5
#
DISCID=d00d540f
DTITLE=Various Artist - SC-8619 - Country Hits Vol128
DYEAR=2000
DGENRE=Karaoke
TTITLE0=John Anderson - You Ain't Hurt Nothin' Yet
TTITLE1=Randy Travis - A Little Left Of Center
TTITLE2=River Road - Breathless
TTITLE3=Tracy Lawrence - Lonely
TTITLE4=Diamond Rio - Stuff
TTITLE5=Alan Jackson - It Must Be Love
TTITLE6=Toby Keith - Country Comes To Town
TTITLE7=Wade Hayes - Goodbye Is The Wrong Way To Go
TTITLE8=Anita Cochran - Good Times (Radio Version)
TTITLE9=Jo Dee Messina - That's The Way
TTITLE10=Billy Gilman - One Voice
TTITLE11=Aaron Tippin - Kiss This
TTITLE12=Vince Gill - Feels Like Love
TTITLE13=Trisha Yearwood - Too Bad You're No Good
TTITLE14=Chely Wright - She Went Out For Cigarettes
EXTD=MediaType: Karaoke CD+G Producer: Soundchoice
EXTT0=
EXTT1=
EXTT2=
EXTT3=
EXTT4=
EXTT5=
EXTT6=
EXTT7=
EXTT8=
EXTT9=
EXTT10=
EXTT11=
EXTT12=
EXTT13=
EXTT14=
PLAYORDER=
